PathFileType	4	(X/Y/Z)	D:\TRACE\spotREDO_2-26-24\spot_Both_Motion_1_9-platform.trc
DataRate	CameraRate	NumFrames	NumMarkers	Units	OrigDataRate	OrigDataStartFrame	OrigNumFrames
100.00	100.00	      30	5	mm	100.00	6126	      7000
Frame#	Time	Left_Front			Right_Front			Left_Aft			Right_Aft			Post			
		X1	Y1	Z1	X2	Y2	Z2	X3	Y3	Z3	X4	Y4	Z4	X5	Y5	Z5	

6126	61.250	-649.00293	21.99294	-568.43616	766.33606	27.55271	-483.61920	-719.85315	-23.34865	649.53351	850.33588	-15.57123	653.28912	60.30054	666.65015	-947.07202	
6127	61.260	-648.61938	21.90343	-568.39478	766.67212	27.38967	-483.59183	-719.55109	-23.23806	649.41986	850.87244	-15.36621	653.29895	60.63263	666.45276	-947.16650	
6128	61.270	-648.27087	21.81997	-568.40619	766.88025	27.35260	-483.67596	-718.97961	-23.02962	649.56390	851.06128	-15.11598	653.40729	60.94857	666.32990	-947.41974	
6129	61.280	-647.83612	21.61438	-568.39423	767.00391	27.34553	-483.76718	-718.89050	-22.76971	649.52966	851.25647	-14.87458	653.31720	61.34404	666.08344	-947.63489	
6130	61.290	-647.59967	21.42581	-568.41223	767.19128	27.23829	-483.80237	-718.69531	-22.64541	649.45117	851.46210	-14.62648	653.39825	61.39576	665.78046	-948.26422	
6131	61.300	-647.45380	21.26744	-568.43817	767.31494	27.26702	-483.92255	-718.55914	-22.50071	649.35242	851.69788	-14.30472	653.32422	61.43200	665.52155	-948.62280	
6132	61.310	-647.27960	21.09826	-568.49738	767.47552	27.07720	-483.99585	-718.39331	-22.20596	649.36548	851.77979	-14.10012	653.25391	61.45239	665.14697	-949.11633	
6133	61.320	-647.17206	20.99111	-568.56580	767.75958	26.84708	-483.84589	-718.29828	-21.95826	649.24445	851.96783	-13.95732	653.19067	61.94322	664.72058	-949.45599	
6134	61.330	-647.04175	20.90987	-568.65393	767.89685	26.69475	-483.98764	-718.04181	-21.71907	649.21869	852.09106	-13.82952	653.20392	62.31115	664.50641	-949.49146	
6135	61.340	-646.99164	20.75079	-568.67212	767.98956	26.58292	-484.18542	-717.96692	-21.48781	649.16376	852.26935	-13.70427	653.19128	62.22544	664.24994	-949.91663	
6136	61.350	-647.00177	20.48371	-568.71881	768.04443	26.23388	-484.21869	-718.17004	-21.21033	649.10400	852.25629	-13.57815	653.16095	62.32515	664.04547	-950.09528	
6137	61.360	-646.99194	20.28873	-568.77356	767.94458	26.24634	-484.52158	-717.96869	-21.08613	649.07599	852.24945	-13.39516	653.15192	62.34806	663.75531	-950.12836	
6138	61.370	-647.04547	20.14678	-568.79840	768.00409	26.06539	-484.47937	-717.87231	-21.06271	649.01001	852.32214	-13.32101	653.11914	62.66051	663.39496	-949.96564	
6139	61.380	-647.05151	20.00686	-568.84125	768.03497	25.95697	-484.44095	-717.90039	-20.96189	648.97070	852.26532	-13.20704	653.05011	62.77915	663.13983	-950.03009	
6140	61.390	-646.99481	19.74383	-569.00671	768.03204	25.82450	-484.50098	-717.81317	-20.75780	648.89392	852.34784	-12.95444	653.00293	62.57601	662.63226	-950.38062	
6141	61.400	-646.83838	19.48625	-569.11890	768.12213	25.71684	-484.54889	-717.74115	-20.57880	648.84979	852.30920	-12.64970	652.90558	62.44789	662.32050	-950.63354	
6142	61.410	-646.70795	19.18212	-569.17053	768.13971	25.39719	-484.73621	-717.65350	-20.32993	648.93152	852.45233	-12.31208	652.74408	62.48121	661.94659	-951.15979	
6143	61.420	-646.70001	18.89737	-569.22833	768.08777	25.18708	-484.82263	-717.75000	-20.01824	648.88556	852.53040	-12.07617	652.68744	62.35695	661.64166	-951.43585	
6144	61.430	-646.73004	18.72364	-569.28235	768.17310	25.02094	-484.76416	-717.79871	-19.76958	648.83197	852.60449	-11.88494	652.71094	62.41713	661.22375	-951.97937	
6145	61.440	-646.74799	18.44668	-569.33093	768.35767	24.66886	-484.68469	-717.93506	-19.38453	648.66718	852.57971	-11.58897	652.78717	62.73558	660.76685	-952.35602	
6146	61.450	-646.82153	18.25989	-569.39551	768.10223	24.59260	-485.04794	-718.00525	-19.15427	648.61768	852.48651	-11.31710	652.76495	62.35879	660.28235	-952.79517	
6147	61.460	-646.96344	17.94853	-569.50342	768.07397	24.24131	-485.07013	-718.05042	-18.82684	648.58502	852.27557	-10.91101	652.76630	62.23494	659.87964	-953.48932	
6148	61.470	-647.11969	17.69729	-569.52344	768.06696	23.91979	-485.03934	-718.07831	-18.59801	648.54468	852.15192	-10.57821	652.76813	62.20216	659.45355	-953.77661	
6149	61.480	-647.28864	17.53338	-569.61438	767.62830	23.55024	-485.00287	-718.34161	-18.30545	648.49414	851.87512	-10.33036	652.73950	61.91766	658.96759	-954.21429	
6150	61.490	-647.54938	17.28933	-569.71985	767.43982	23.32929	-485.10370	-718.71240	-18.00718	648.41614	851.80054	-10.15531	652.62683	61.60855	658.48309	-954.41376	
6151	61.500	-647.83478	16.95768	-569.84320	767.09161	23.14534	-485.21237	-719.03088	-17.70764	648.31396	851.37585	-9.82790	652.47217	61.18650	658.08118	-954.78931	
6152	61.510	-648.08118	16.40477	-569.94629	766.86310	22.91730	-485.40414	-719.44751	-17.41133	648.25903	850.98163	-9.42502	652.37781	60.98761	657.57648	-955.13837	
6153	61.520	-648.18671	15.94276	-570.10974	766.68286	22.82283	-485.49326	-719.54211	-16.92410	648.30481	850.69458	-9.11766	652.24323	60.79649	657.08435	-955.50128	
6154	61.530	-648.35840	15.64233	-570.18494	766.66223	22.36292	-485.38931	-719.70782	-16.81713	648.13678	850.69562	-8.82654	652.07343	60.51091	656.39355	-955.98907	
6155	61.540	-648.65106	15.46989	-570.33435	766.35089	22.05109	-485.48615	-719.91760	-16.44490	648.07935	850.59827	-8.63186	651.96179	60.31622	655.99530	-956.09821	
